<svg xmlns="http://www.w3.org/2000/svg" version="1.1" xmlns:xlink="http://www.w3.org/1999/xlink" xmlns:svgjs="http://svgjs.dev/svgjs" width="1500" height="1500" viewBox="0 0 1500 1500"><rect width="1500" height="1500" fill="#f84114"></rect><g transform="matrix(0.6666666666666666,0,0,0.6666666666666666,249.39393939393938,438.5856950067477)"><svg viewBox="0 0 396 247" data-background-color="#f84114" preserveAspectRatio="xMidYMid meet" height="935" width="1500" xmlns="http://www.w3.org/2000/svg" xmlns:xlink="http://www.w3.org/1999/xlink"><g id="tight-bounds" transform="matrix(1,0,0,1,0.2400000000000091,-0.09999999999999432)"><svg viewBox="0 0 395.52 247.2" height="247.2" width="395.52"><g><svg></svg></g><g><svg viewBox="0 0 395.52 247.2" height="247.2" width="395.52"><g transform="matrix(1,0,0,1,75.54432000000001,74.95658654120516)"><svg viewBox="0 0 244.43135999999996 97.28682691758968" height="97.28682691758968" width="244.43135999999996"><g><svg viewBox="0 0 244.43135999999996 97.28682691758968" height="97.28682691758968" width="244.43135999999996"><g><svg viewBox="0 0 244.43135999999996 97.28682691758968" height="97.28682691758968" width="244.43135999999996"><g><svg viewBox="0 0 244.43135999999996 97.28682691758968" height="97.28682691758968" width="244.43135999999996"><g id="textblocktransform"><svg viewBox="0 0 244.43135999999996 97.28682691758968" height="97.28682691758968" width="244.43135999999996" id="textblock"><g><svg viewBox="0 0 244.43135999999996 63.58267917044913" height="63.58267917044913" width="244.43135999999996"><g transform="matrix(1,0,0,1,0,0)"><svg width="244.43135999999996" viewBox="4 -40.15 181.24843373493977 47.15" height="63.58267917044913" data-palette-color="#f3e62b"><path d="M13.3-22.85L22.95-22.85Q24.25-22.85 25.65-22.3 27.05-21.75 28.35-20.85L28.35-20.85 28.3-20.85Q29.6-19.95 30.3-18.4 31-16.85 31-14.85L31-14.85 31-8Q31-3.95 28.3-1.95L28.3-1.95Q27-1 25.63-0.48 24.25 0.05 22.95 0.05L22.95 0.05 12.05 0.05Q10.75 0.05 9.38-0.48 8-1 6.7-1.95L6.7-1.95Q4-3.95 4-8L4-8 4-11.3Q4-13.65 6.95-13.65L6.95-13.65Q9.95-13.65 9.95-11.3L9.95-11.3 9.95-8.4Q9.95-7.1 10.7-6.05 11.45-5 13.3-5L13.3-5 21.7-5Q23.55-5 24.3-6.05 25.05-7.1 25.05-8.4L25.05-8.4 25.05-14.45Q25.05-15.7 24.3-16.78 23.55-17.85 21.7-17.85L21.7-17.85 12.05-17.85Q9.45-17.85 6.7-19.75L6.7-19.75Q4-21.85 4-25.8L4-25.8 4-31.75Q4-33.75 4.7-35.27 5.4-36.8 6.7-37.75L6.7-37.75 6.65-37.75Q7.95-38.6 9.35-39.15 10.75-39.7 12.05-39.7L12.05-39.7 22.95-39.7Q24.25-39.7 25.65-39.15 27.05-38.6 28.35-37.75L28.35-37.75 28.3-37.75Q29.6-36.8 30.3-35.27 31-33.75 31-31.75L31-31.75 31-28.8Q31-26.45 28-26.45L28-26.45Q25.05-26.45 25.05-28.8L25.05-28.8 25.05-31.3Q25.05-32.55 24.3-33.6 23.55-34.65 21.7-34.65L21.7-34.65 13.3-34.65Q11.45-34.65 10.7-33.6 9.95-32.55 9.95-31.3L9.95-31.3 9.95-26.2Q9.95-24.9 10.7-23.88 11.45-22.85 13.3-22.85L13.3-22.85ZM52.45-15.6L48.9-1.55 48.95-1.6Q48.6-0.45 47.6-0.1 46.6 0.25 45.6 0.25L45.6 0.25Q44.65 0.25 43.62-0.1 42.6-0.45 42.3-1.6L42.3-1.6 42.35-1.55 35.8-27.45Q35.2-29.55 37.75-30.25L37.75-30.25Q40.2-30.9 40.9-28.55L40.9-28.55 40.9-28.6 44.95-12.3 46.3-12.3 50.35-28.6Q50.6-29.65 51.47-29.98 52.35-30.3 53.1-30.3L53.1-30.3Q53.95-30.3 54.77-29.93 55.6-29.55 55.9-28.6L55.9-28.6Q56.35-26.8 56.72-25.25 57.1-23.7 57.45-22.25 57.8-20.8 58.12-19.4 58.45-18 58.85-16.5L58.85-16.5 59.95-12.25 61.3-12.25Q62.3-16.3 63.32-20.43 64.35-24.55 65.35-28.6L65.35-28.6 65.3-28.55Q66-30.9 68.45-30.25L68.45-30.25Q71-29.65 70.4-27.45L70.4-27.45 63.9-1.55 63.95-1.6Q63.65-0.45 62.62-0.1 61.6 0.25 60.6 0.25L60.6 0.25Q59.65 0.25 58.65-0.1 57.65-0.45 57.3-1.6L57.3-1.6 57.35-1.55 53.8-15.6 52.45-15.6ZM79.8-22.15L79.8-8Q79.8-6.8 80.57-5.75 81.34-4.7 83.2-4.7L83.2-4.7 89.45-4.7Q91.3-4.7 92.07-5.63 92.84-6.55 92.84-7.75L92.84-7.75 92.84-8.3Q92.84-10.65 95.59-10.65L95.59-10.65Q98.34-10.65 98.34-8.3L98.34-8.3 98.34-7.7Q98.34-5.6 97.67-4.25 97-2.9 95.65-1.9L95.65-1.9Q93 0 90.34 0L90.34 0 81.95 0Q79.3 0 76.8-1.9L76.8-1.9Q75.59-2.9 74.95-4.42 74.3-5.95 74.3-7.95L74.3-7.95 74.3-22.2Q74.3-26.25 76.8-28.2L76.8-28.2Q78.05-29.1 79.37-29.63 80.7-30.15 81.95-30.15L81.95-30.15 90.34-30.15Q91.55-30.15 93-29.68 94.45-29.2 95.7-28.4L95.7-28.4Q96.9-27.55 97.62-26.05 98.34-24.55 98.34-22.5L98.34-22.5 98.34-15.75Q98.34-14.6 97.67-13.7 97-12.8 95.2-12.8L95.2-12.8 84.4-12.8Q82.59-12.8 82.5-15.15L82.5-15.15Q82.5-17.5 84.4-17.5L84.4-17.5 92.9-17.5 92.84-22.15Q92.84-23.4 92.07-24.43 91.3-25.45 89.45-25.45L89.45-25.45 83.2-25.45Q81.34-25.45 80.57-24.43 79.8-23.4 79.8-22.15L79.8-22.15ZM110.19-22.15L110.19-8Q110.19-6.8 110.97-5.75 111.74-4.7 113.59-4.7L113.59-4.7 119.84-4.7Q121.69-4.7 122.47-5.63 123.24-6.55 123.24-7.75L123.24-7.75 123.24-8.3Q123.24-10.65 125.99-10.65L125.99-10.65Q128.74-10.65 128.74-8.3L128.74-8.3 128.74-7.7Q128.74-5.6 128.07-4.25 127.39-2.9 126.04-1.9L126.04-1.9Q123.39 0 120.74 0L120.74 0 112.34 0Q109.69 0 107.19-1.9L107.19-1.9Q105.99-2.9 105.34-4.42 104.69-5.95 104.69-7.95L104.69-7.95 104.69-22.2Q104.69-26.25 107.19-28.2L107.19-28.2Q108.44-29.1 109.77-29.63 111.09-30.15 112.34-30.15L112.34-30.15 120.74-30.15Q121.94-30.15 123.39-29.68 124.84-29.2 126.09-28.4L126.09-28.4Q127.29-27.55 128.02-26.05 128.74-24.55 128.74-22.5L128.74-22.5 128.74-15.75Q128.74-14.6 128.07-13.7 127.39-12.8 125.59-12.8L125.59-12.8 114.79-12.8Q112.99-12.8 112.89-15.15L112.89-15.15Q112.89-17.5 114.79-17.5L114.79-17.5 123.29-17.5 123.24-22.15Q123.24-23.4 122.47-24.43 121.69-25.45 119.84-25.45L119.84-25.45 113.59-25.45Q111.74-25.45 110.97-24.43 110.19-23.4 110.19-22.15L110.19-22.15ZM145.79-25.4L141.64-25.4 141.64-7.2Q141.64-5.9 142.19-5.2 142.74-4.5 144.54-4.5L144.54-4.5 145.84-4.5Q147.79-4.5 147.69-2.2L147.69-2.2Q147.69 0.15 145.84 0.15L145.84 0.15 144.19 0.15Q142.59 0.15 141.19-0.28 139.79-0.7 138.49-1.5L138.49-1.5 138.49-1.45Q136.04-3.05 136.04-7.15L136.04-7.15 136.04-25.4 134.09-25.4Q132.29-25.4 132.19-27.75L132.19-27.75Q132.19-30.1 134.09-30.1L134.09-30.1 136.04-30.1 136.04-35.45Q136.04-37.85 138.89-37.85L138.89-37.85Q141.64-37.85 141.64-35.45L141.64-35.45 141.64-30.1 145.79-30.1Q147.74-30.1 147.64-27.75L147.64-27.75Q147.64-25.4 145.79-25.4L145.79-25.4ZM157.74-37.8L157.74-1.95Q157.74 0.4 154.99 0.4L154.99 0.4Q152.19 0.4 152.19-1.95L152.19-1.95 152.19-37.8Q152.19-40.15 154.99-40.15L154.99-40.15Q157.74-40.15 157.74-37.8L157.74-37.8ZM168.84 7L166.24 7Q164.49 7 164.39 4.65L164.39 4.65Q164.39 2.3 166.24 2.3L166.24 2.3 168.44 2.3Q170.19 2.3 170.74 1.25L170.74 1.25 171.44-0.6 171.69-1.4 161.94-26.95 161.94-26.9Q161.53-28.1 162.11-28.95 162.69-29.8 163.89-30.2L163.89-30.2Q164.78-30.45 165.34-30.45L165.34-30.45Q166.78-30.45 167.14-28.75L167.14-28.75 171.09-18.9 174.44-10.7 179.78-28.65Q180.24-30.45 181.89-30.45L181.89-30.45Q182.29-30.45 183.19-30.2L183.19-30.2Q184.39-29.85 184.91-29.05 185.44-28.25 185.14-27.15L185.14-27.15Q182.89-19.5 180.56-11.75 178.24-4 175.99 3.6L175.99 3.6Q175.74 4.15 175.21 4.73 174.69 5.3 173.84 5.83 172.99 6.35 171.74 6.68 170.49 7 168.84 7L168.84 7Z" opacity="1" transform="matrix(1,0,0,1,0,0)" fill="#f3e62b" class="wordmark-text-0" data-fill-palette-color="primary" id="text-0"></path></svg></g></svg></g><g transform="matrix(1,0,0,1,0,78.59302373829209)"><svg viewBox="0 0 244.43135999999996 18.693803179297596" height="18.693803179297596" width="244.43135999999996"><g transform="matrix(1,0,0,1,0,0)"><svg width="244.43135999999996" viewBox="2.9 -32.45 432.76000000000005 33.1" height="18.693803179297596" data-palette-color="#e8ebf0"><path d="M2.9 0.6L3.2-1.7Q5.5-2.15 6.3-3.03 7.1-3.9 7.1-6L7.1-6 7.15-27Q7.15-28.6 6.78-29.15 6.4-29.7 5.3-29.7L5.3-29.7Q4.8-29.7 4.3-29.65 3.8-29.6 3.6-29.6L3.6-29.6 3.5-29.8 3.85-32Q4.5-31.95 6.48-31.9 8.45-31.85 10.8-31.85L10.8-31.85Q20.65-31.85 24.85-32.45L24.85-32.45 25-32.15Q24.95-31.85 24.73-30.75 24.5-29.65 24.25-27.7 24-25.75 23.85-23.7L23.85-23.7 21.45-23.5Q21.45-23.75 21.5-24.45 21.55-25.15 21.55-25.8L21.55-25.8Q21.55-27.55 21.13-28.23 20.7-28.9 19.4-29.13 18.1-29.35 14.85-29.35L14.85-29.35Q13.1-29.35 12.45-29.25 11.8-29.15 11.6-28.78 11.4-28.4 11.35-27.4L11.35-27.4 10.95-16.85 16.1-16.8Q17.05-16.8 18.9-17.03 20.75-17.25 21.35-17.35L21.35-17.35 21.55-17.1 20.85-14.1Q20.2-14.15 18.43-14.2 16.65-14.25 14.7-14.25L14.7-14.25Q12.85-14.25 10.85-13.9L10.85-13.9 10.65-5.6Q10.65-3.55 11.1-2.88 11.55-2.2 12.85-2.2L12.85-2.2Q13.85-2.2 14.93-2.27 16-2.35 16.4-2.35L16.4-2.35 16.5-2.15 16.05 0.2Q15.25 0.15 13.08 0.08 10.9 0 8.6 0L8.6 0Q7.05 0 5.25 0.25 3.45 0.5 2.9 0.6L2.9 0.6ZM47.15 0.6Q46.05 0.6 44.9-0.38 43.75-1.35 42.8-3.05L42.8-3.05 38.6-10.4 35.35-10.4 35.25-5.05Q35.25-3.6 35.45-2.98 35.65-2.35 36.22-2.15 36.8-1.95 38.2-1.9L38.2-1.9 38.3-1.75 37.9 0.15Q37.3 0.1 35.72 0.08 34.15 0.05 32.55 0.05L32.55 0.05Q31 0.05 29.85 0.1 28.7 0.15 28.3 0.2L28.3 0.2 28.65-1.85Q30.5-2.1 31.1-2.7 31.7-3.3 31.7-4.95L31.7-4.95 31.75-20.9Q31.75-22.1 31.45-22.53 31.15-22.95 30.3-22.95L30.3-22.95 28.9-22.9 28.75-23.1 29.05-25Q29.55-25 30.95-24.95 32.35-24.9 33.75-24.9L33.75-24.9Q35.2-24.9 36.85-24.98 38.5-25.05 39.1-25.05L39.1-25.05Q43.15-25.05 45.45-23.38 47.75-21.7 47.75-18.75L47.75-18.75Q47.75-16.45 46.2-14.5 44.65-12.55 41.85-11.3L41.85-11.3 46.1-4.9Q47.3-3.1 48.4-2.35 49.5-1.6 51.05-1.6L51.05-1.6 51.25-1.35 51 0.2 47.15 0.6ZM39.5-12.6Q40.45-13 41.17-13.38 41.9-13.75 42.8-14.95 43.7-16.15 43.7-18.05L43.7-18.05Q43.7-22.9 36.55-22.9L36.55-22.9Q36.15-22.9 36-22.73 35.85-22.55 35.85-22L35.85-22Q35.45-15.9 35.45-13L35.45-13 39.5-12.6ZM54.75 0.4L55-1.7Q56.84-1.9 57.5-2.6 58.15-3.3 58.15-5L58.15-5 58.2-20.85Q58.2-22.1 57.9-22.53 57.59-22.95 56.7-22.95L56.7-22.95 55.34-22.9 55.25-23.1 55.55-25Q56.15-25 57.9-24.95 59.65-24.9 61.7-24.9L61.7-24.9Q70.05-24.9 74.05-25.35L74.05-25.35 74.2-25.1Q74.09-24.55 73.75-22.6 73.4-20.65 73.25-18.4L73.25-18.4 70.84-18.2Q70.84-18.4 70.9-18.88 70.95-19.35 70.95-19.85L70.95-19.85Q70.95-21.15 70.57-21.68 70.2-22.2 69.02-22.38 67.84-22.55 64.95-22.55L64.95-22.55Q63.59-22.55 63.09-22.48 62.59-22.4 62.45-22.13 62.3-21.85 62.25-21.1L62.25-21.1 61.95-14 66.05-13.95Q66.95-13.95 68.7-14.13 70.45-14.3 71-14.35L71-14.35 71.2-14.1 70.59-11.5Q70.05-11.5 68.42-11.55 66.8-11.6 65-11.6L65-11.6Q63.59-11.6 61.84-11.35L61.84-11.35Q61.7-7.55 61.7-4.5L61.7-4.5Q61.7-3.35 61.87-2.9 62.05-2.45 62.67-2.3 63.3-2.15 64.75-2.15L64.75-2.15Q68-2.15 69.4-2.45 70.8-2.75 71.37-3.68 71.95-4.6 72.3-6.85L72.3-6.85 74.5-7.05 74.7-6.8Q74.55-6.25 74.17-4.23 73.8-2.2 73.59 0L73.59 0 73.3 0.25Q71.95 0.2 67.7 0.1 63.45 0 60.8 0L60.8 0Q58.75 0 57 0.18 55.25 0.35 54.75 0.4L54.75 0.4ZM80.14 0.4L80.39-1.7Q82.24-1.9 82.89-2.6 83.54-3.3 83.54-5L83.54-5 83.59-20.85Q83.59-22.1 83.29-22.53 82.99-22.95 82.09-22.95L82.09-22.95 80.74-22.9 80.64-23.1 80.94-25Q81.54-25 83.29-24.95 85.04-24.9 87.09-24.9L87.09-24.9Q95.44-24.9 99.44-25.35L99.44-25.35 99.59-25.1Q99.49-24.55 99.14-22.6 98.79-20.65 98.64-18.4L98.64-18.4 96.24-18.2Q96.24-18.4 96.29-18.88 96.34-19.35 96.34-19.85L96.34-19.85Q96.34-21.15 95.97-21.68 95.59-22.2 94.42-22.38 93.24-22.55 90.34-22.55L90.34-22.55Q88.99-22.55 88.49-22.48 87.99-22.4 87.84-22.13 87.69-21.85 87.64-21.1L87.64-21.1 87.34-14 91.44-13.95Q92.34-13.95 94.09-14.13 95.84-14.3 96.39-14.35L96.39-14.35 96.59-14.1 95.99-11.5Q95.44-11.5 93.82-11.55 92.19-11.6 90.39-11.6L90.39-11.6Q88.99-11.6 87.24-11.35L87.24-11.35Q87.09-7.55 87.09-4.5L87.09-4.5Q87.09-3.35 87.27-2.9 87.44-2.45 88.07-2.3 88.69-2.15 90.14-2.15L90.14-2.15Q93.39-2.15 94.79-2.45 96.19-2.75 96.77-3.68 97.34-4.6 97.69-6.85L97.69-6.85 99.89-7.05 100.09-6.8Q99.94-6.25 99.57-4.23 99.19-2.2 98.99 0L98.99 0 98.69 0.25Q97.34 0.2 93.09 0.1 88.84 0 86.19 0L86.19 0Q84.14 0 82.39 0.18 80.64 0.35 80.14 0.4L80.14 0.4ZM115.64 0.6L115.94-1.7Q118.24-2.15 119.04-3.03 119.84-3.9 119.84-6L119.84-6 119.89-27Q119.89-28.6 119.51-29.15 119.14-29.7 118.04-29.7L118.04-29.7Q117.54-29.7 117.04-29.65 116.54-29.6 116.34-29.6L116.34-29.6 116.24-29.8 116.59-32Q117.24-31.95 119.21-31.9 121.19-31.85 123.54-31.85L123.54-31.85Q133.39-31.85 137.59-32.45L137.59-32.45 137.74-32.15Q137.69-31.85 137.46-30.75 137.24-29.65 136.99-27.7 136.74-25.75 136.59-23.7L136.59-23.7 134.19-23.5Q134.19-23.75 134.24-24.45 134.29-25.15 134.29-25.8L134.29-25.8Q134.29-27.55 133.86-28.23 133.44-28.9 132.14-29.13 130.84-29.35 127.59-29.35L127.59-29.35Q125.84-29.35 125.19-29.25 124.54-29.15 124.34-28.78 124.14-28.4 124.09-27.4L124.09-27.4 123.69-16.85 128.84-16.8Q129.79-16.8 131.64-17.03 133.49-17.25 134.09-17.35L134.09-17.35 134.29-17.1 133.59-14.1Q132.94-14.15 131.16-14.2 129.39-14.25 127.44-14.25L127.44-14.25Q125.59-14.25 123.59-13.9L123.59-13.9 123.39-5.6Q123.39-3.55 123.84-2.88 124.29-2.2 125.59-2.2L125.59-2.2Q126.59-2.2 127.66-2.27 128.74-2.35 129.14-2.35L129.14-2.35 129.24-2.15 128.79 0.2Q127.99 0.15 125.81 0.08 123.64 0 121.34 0L121.34 0Q119.79 0 117.99 0.25 116.19 0.5 115.64 0.6L115.64 0.6ZM151.39 0.45Q147.99 0.45 145.36-1.05 142.74-2.55 141.31-5.3 139.89-8.05 139.89-11.65L139.89-11.65Q139.89-15.55 141.66-18.68 143.44-21.8 146.51-23.58 149.59-25.35 153.39-25.35L153.39-25.35Q156.84-25.35 159.49-23.85 162.14-22.35 163.59-19.63 165.04-16.9 165.04-13.3L165.04-13.3Q165.04-9.4 163.26-6.28 161.49-3.15 158.36-1.35 155.24 0.45 151.39 0.45L151.39 0.45ZM152.59-1.95Q156.24-1.95 158.49-4.58 160.74-7.2 160.74-11.55L160.74-11.55Q160.74-14.85 159.66-17.35 158.59-19.85 156.61-21.2 154.64-22.55 152.04-22.55L152.04-22.55Q148.49-22.55 146.31-19.95 144.14-17.35 144.14-13L144.14-13Q144.14-9.7 145.19-7.2 146.24-4.7 148.16-3.33 150.09-1.95 152.59-1.95L152.59-1.95ZM180.63 0.45Q177.23 0.45 174.61-1.05 171.98-2.55 170.56-5.3 169.13-8.05 169.13-11.65L169.13-11.65Q169.13-15.55 170.91-18.68 172.68-21.8 175.76-23.58 178.83-25.35 182.63-25.35L182.63-25.35Q186.08-25.35 188.73-23.85 191.38-22.35 192.83-19.63 194.28-16.9 194.28-13.3L194.28-13.3Q194.28-9.4 192.51-6.28 190.73-3.15 187.61-1.35 184.48 0.45 180.63 0.45L180.63 0.45ZM181.83-1.95Q185.48-1.95 187.73-4.58 189.98-7.2 189.98-11.55L189.98-11.55Q189.98-14.85 188.91-17.35 187.83-19.85 185.86-21.2 183.88-22.55 181.28-22.55L181.28-22.55Q177.73-22.55 175.56-19.95 173.38-17.35 173.38-13L173.38-13Q173.38-9.7 174.43-7.2 175.48-4.7 177.41-3.33 179.33-1.95 181.83-1.95L181.83-1.95ZM209.88 0.45Q209.23 0.35 207.26 0.18 205.28 0 203.93 0L203.93 0Q202.63 0 201.08 0.18 199.53 0.35 199.08 0.45L199.08 0.45 199.33-1.65Q201.13-1.95 201.78-2.65 202.43-3.35 202.43-4.95L202.43-4.95 202.48-20.85Q202.48-22.1 202.18-22.53 201.88-22.95 201.03-22.95L201.03-22.95Q200.58-22.95 200.18-22.9 199.78-22.85 199.63-22.85L199.63-22.85 199.53-23.1 199.83-25Q200.33-25 201.66-24.95 202.98-24.9 204.33-24.9L204.33-24.9Q206.13-24.9 208.03-24.98 209.93-25.05 210.63-25.05L210.63-25.05Q214.63-25.05 217.68-23.6 220.73-22.15 222.41-19.53 224.08-16.9 224.08-13.4L224.08-13.4Q224.08-9.5 222.21-6.35 220.33-3.2 217.08-1.38 213.83 0.45 209.88 0.45L209.88 0.45ZM207.98-22.7Q207.18-22.7 206.91-22.53 206.63-22.35 206.58-21.8L206.58-21.8Q205.98-7.75 205.98-5.3L205.98-5.3Q205.98-3.95 206.38-3.23 206.78-2.5 207.78-2.23 208.78-1.95 210.73-1.95L210.73-1.95Q214.93-1.95 217.31-4.7 219.68-7.45 219.68-12.4L219.68-12.4Q219.68-17.45 216.68-20.08 213.68-22.7 207.98-22.7L207.98-22.7ZM251.88 0.6Q251.13 0.5 248.7 0.25 246.28 0 244.68 0L244.68 0Q243.13 0 241.3 0.25 239.48 0.5 238.93 0.6L238.93 0.6 239.23-1.7Q241.53-2.15 242.33-3.03 243.13-3.9 243.13-6L243.13-6 243.18-27Q243.18-28.6 242.8-29.15 242.43-29.7 241.33-29.7L241.33-29.7Q240.83-29.7 240.33-29.65 239.83-29.6 239.63-29.6L239.63-29.6 239.53-29.8 239.88-32Q240.43-31.95 241.98-31.9 243.53-31.85 245.13-31.85L245.13-31.85Q247.28-31.85 249.58-31.93 251.88-32 252.73-32.05L252.73-32.05Q257.53-32.05 261.28-30.18 265.03-28.3 267.1-24.9 269.18-21.5 269.18-17.1L269.18-17.1Q269.18-12.2 266.88-8.15 264.58-4.1 260.63-1.75 256.68 0.6 251.88 0.6L251.88 0.6ZM249.28-29.6Q248.23-29.6 247.88-29.38 247.53-29.15 247.48-28.5L247.48-28.5Q246.73-9.25 246.73-6.55L246.73-6.55Q246.73-4.65 247.25-3.7 247.78-2.75 249.1-2.35 250.43-1.95 253.03-1.95L253.03-1.95Q258.43-1.95 261.53-5.68 264.63-9.4 264.63-15.9L264.63-15.9Q264.63-22.5 260.65-26.05 256.68-29.6 249.28-29.6L249.28-29.6ZM273.87 0.4L274.12-1.7Q275.97-1.9 276.62-2.6 277.27-3.3 277.27-5L277.27-5 277.32-20.85Q277.32-22.1 277.02-22.53 276.72-22.95 275.82-22.95L275.82-22.95 274.47-22.9 274.37-23.1 274.67-25Q275.27-25 277.02-24.95 278.77-24.9 280.82-24.9L280.82-24.9Q289.17-24.9 293.17-25.35L293.17-25.35 293.32-25.1Q293.22-24.55 292.87-22.6 292.52-20.65 292.37-18.4L292.37-18.4 289.97-18.2Q289.97-18.4 290.02-18.88 290.07-19.35 290.07-19.85L290.07-19.85Q290.07-21.15 289.7-21.68 289.32-22.2 288.15-22.38 286.97-22.55 284.07-22.55L284.07-22.55Q282.72-22.55 282.22-22.48 281.72-22.4 281.57-22.13 281.42-21.85 281.37-21.1L281.37-21.1 281.07-14 285.17-13.95Q286.07-13.95 287.82-14.13 289.57-14.3 290.12-14.35L290.12-14.35 290.32-14.1 289.72-11.5Q289.17-11.5 287.55-11.55 285.92-11.6 284.12-11.6L284.12-11.6Q282.72-11.6 280.97-11.35L280.97-11.35Q280.82-7.55 280.82-4.5L280.82-4.5Q280.82-3.35 281-2.9 281.17-2.45 281.8-2.3 282.42-2.15 283.87-2.15L283.87-2.15Q287.12-2.15 288.52-2.45 289.92-2.75 290.5-3.68 291.07-4.6 291.42-6.85L291.42-6.85 293.62-7.05 293.82-6.8Q293.67-6.25 293.3-4.23 292.92-2.2 292.72 0L292.72 0 292.42 0.25Q291.07 0.2 286.82 0.1 282.57 0 279.92 0L279.92 0Q277.87 0 276.12 0.18 274.37 0.35 273.87 0.4L273.87 0.4ZM299.62 0.4L299.92-1.7Q301.52-1.95 302.1-2.63 302.67-3.3 302.67-5L302.67-5 302.72-20.85Q302.72-22.1 302.42-22.53 302.12-22.95 301.22-22.95L301.22-22.95 299.87-22.9 299.72-23.1 300.02-25Q300.27-25 301.52-24.95 302.77-24.9 304.87-24.9L304.87-24.9Q305.97-24.9 307.6-25.05 309.22-25.2 309.72-25.25L309.72-25.25 309.52-23.15Q308.17-23 307.62-22.68 307.07-22.35 306.97-21.85 306.87-21.35 306.72-19.8L306.72-19.8Q306.22-13.1 306.22-4.95L306.22-4.95Q306.22-3.7 306.45-3.13 306.67-2.55 307.35-2.35 308.02-2.15 309.47-2.15L309.47-2.15Q311.87-2.15 313-2.55 314.12-2.95 314.7-4.13 315.27-5.3 315.72-7.85L315.72-7.85 317.92-8.1 318.07-7.8Q317.97-7.15 317.6-4.83 317.22-2.5 316.92 0.05L316.92 0.05 316.67 0.35Q315.52 0.3 311.8 0.15 308.07 0 305.52 0L305.52 0Q303.52 0 301.8 0.18 300.07 0.35 299.62 0.4L299.62 0.4ZM320.32 0.45L320.57-1.6Q322.47-1.95 323.12-2.63 323.77-3.3 323.77-4.95L323.77-4.95 323.82-20.85Q323.82-22.1 323.52-22.53 323.22-22.95 322.32-22.95L322.32-22.95 320.67-22.9 320.57-23.1 320.82-25Q321.12-25 322.44-24.95 323.77-24.9 325.92-24.9L325.92-24.9Q327.07-24.9 328.74-25.05 330.42-25.2 330.92-25.25L330.92-25.25 330.72-23.2Q329.07-23 328.52-22.58 327.97-22.15 327.87-21L327.87-21Q327.67-17 327.49-12.15 327.32-7.3 327.32-4.65L327.32-4.65Q327.32-3.05 327.67-2.5 328.02-1.95 329.07-1.95L329.07-1.95Q329.77-1.95 330.34-2 330.92-2.05 331.12-2.1L331.12-2.1 331.22-1.9 330.87 0.1Q330.27 0.1 328.62 0.05 326.97 0 325.32 0L325.32 0Q323.97 0 322.39 0.18 320.82 0.35 320.32 0.45L320.32 0.45ZM344.32 0.65Q343.72-1.4 341.59-8.13 339.47-14.85 337.52-20.65L337.52-20.65Q337.17-21.75 336.29-22.3 335.42-22.85 333.92-22.95L333.92-22.95 333.82-23.1 334.12-25Q334.67-25 336.12-24.95 337.57-24.9 338.97-24.9L338.97-24.9Q340.47-24.9 342.57-25.08 344.67-25.25 345.32-25.3L345.32-25.3 345.47-25 345.32-23.2Q343.12-23.05 342.44-22.75 341.77-22.45 341.77-21.65L341.77-21.65Q341.77-20.85 343.79-13.8 345.82-6.75 346.57-4.2L346.57-4.2 347.02-4.2Q348.77-8.4 351.09-14.6 353.42-20.8 353.42-21.6L353.42-21.6Q353.42-22.4 352.82-22.73 352.22-23.05 350.77-23.05L350.77-23.05 348.77-23.05 348.67-23.25 348.92-25.15Q349.47-25.1 351.29-25 353.12-24.9 354.82-24.9L354.82-24.9Q356.37-24.9 357.67-24.95 358.97-25 359.42-25L359.42-25 359.07-22.95Q357.87-22.9 357.39-22.53 356.92-22.15 356.47-21L356.47-21 348.02-0.2 344.32 0.65ZM362.56 0.4L362.81-1.7Q364.66-1.9 365.31-2.6 365.96-3.3 365.96-5L365.96-5 366.01-20.85Q366.01-22.1 365.71-22.53 365.41-22.95 364.51-22.95L364.51-22.95 363.16-22.9 363.06-23.1 363.36-25Q363.96-25 365.71-24.95 367.46-24.9 369.51-24.9L369.51-24.9Q377.86-24.9 381.86-25.35L381.86-25.35 382.01-25.1Q381.91-24.55 381.56-22.6 381.21-20.65 381.06-18.4L381.06-18.4 378.66-18.2Q378.66-18.4 378.71-18.88 378.76-19.35 378.76-19.85L378.76-19.85Q378.76-21.15 378.39-21.68 378.01-22.2 376.84-22.38 375.66-22.55 372.76-22.55L372.76-22.55Q371.41-22.55 370.91-22.48 370.41-22.4 370.26-22.13 370.11-21.85 370.06-21.1L370.06-21.1 369.76-14 373.86-13.95Q374.76-13.95 376.51-14.13 378.26-14.3 378.81-14.35L378.81-14.35 379.01-14.1 378.41-11.5Q377.86-11.5 376.24-11.55 374.61-11.6 372.81-11.6L372.81-11.6Q371.41-11.6 369.66-11.35L369.66-11.35Q369.51-7.55 369.51-4.5L369.51-4.5Q369.51-3.35 369.69-2.9 369.86-2.45 370.49-2.3 371.11-2.15 372.56-2.15L372.56-2.15Q375.81-2.15 377.21-2.45 378.61-2.75 379.19-3.68 379.76-4.6 380.11-6.85L380.11-6.85 382.31-7.05 382.51-6.8Q382.36-6.25 381.99-4.23 381.61-2.2 381.41 0L381.41 0 381.11 0.25Q379.76 0.2 375.51 0.1 371.26 0 368.61 0L368.61 0Q366.56 0 364.81 0.18 363.06 0.35 362.56 0.4L362.56 0.4ZM406.81 0.6Q405.71 0.6 404.56-0.38 403.41-1.35 402.46-3.05L402.46-3.05 398.26-10.4 395.01-10.4 394.91-5.05Q394.91-3.6 395.11-2.98 395.31-2.35 395.89-2.15 396.46-1.95 397.86-1.9L397.86-1.9 397.96-1.75 397.56 0.15Q396.96 0.1 395.39 0.08 393.81 0.05 392.21 0.05L392.21 0.05Q390.66 0.05 389.51 0.1 388.36 0.15 387.96 0.2L387.96 0.2 388.31-1.85Q390.16-2.1 390.76-2.7 391.36-3.3 391.36-4.95L391.36-4.95 391.41-20.9Q391.41-22.1 391.11-22.53 390.81-22.95 389.96-22.95L389.96-22.95 388.56-22.9 388.41-23.1 388.71-25Q389.21-25 390.61-24.95 392.01-24.9 393.41-24.9L393.41-24.9Q394.86-24.9 396.51-24.98 398.16-25.05 398.76-25.05L398.76-25.05Q402.81-25.05 405.11-23.38 407.41-21.7 407.41-18.75L407.41-18.75Q407.41-16.45 405.86-14.5 404.31-12.55 401.51-11.3L401.51-11.3 405.76-4.9Q406.96-3.1 408.06-2.35 409.16-1.6 410.71-1.6L410.71-1.6 410.91-1.35 410.66 0.2 406.81 0.6ZM399.16-12.6Q400.11-13 400.84-13.38 401.56-13.75 402.46-14.95 403.36-16.15 403.36-18.05L403.36-18.05Q403.36-22.9 396.21-22.9L396.21-22.9Q395.81-22.9 395.66-22.73 395.51-22.55 395.51-22L395.51-22Q395.11-15.9 395.11-13L395.11-13 399.16-12.6ZM418.06 0.45L418.36-1.6Q419.86-1.85 420.56-2.25 421.26-2.65 421.46-3.4 421.66-4.15 421.66-5.65L421.66-5.65 421.66-7.2Q421.66-8.35 421.41-9.25 421.16-10.15 420.46-11.5L420.46-11.5 416.71-18.7Q415.76-20.5 415.26-21.23 414.76-21.95 413.96-22.4 413.16-22.85 411.66-23L411.66-23 411.56-23.2 411.86-25Q412.31-25 413.68-24.95 415.06-24.9 416.56-24.9L416.56-24.9Q417.96-24.9 419.96-25.03 421.96-25.15 422.56-25.2L422.56-25.2 422.71-24.9 422.56-23.25Q420.86-23.15 420.23-22.88 419.61-22.6 419.61-21.9L419.61-21.9Q419.61-21.25 421.38-17.6 423.16-13.95 423.91-12.5L423.91-12.5 424.16-12.5 428.46-20.2Q429.11-21.35 429.11-22.1L429.11-22.1Q429.11-23.05 426.66-23.2L426.66-23.2 426.56-23.35 426.81-25.15Q427.11-25.15 428.81-25.03 430.51-24.9 431.61-24.9L431.61-24.9Q432.91-24.9 434.01-24.95 435.11-25 435.51-25.05L435.51-25.05 435.66-24.75 435.41-23.05Q434.06-22.75 433.31-22.25 432.56-21.75 431.98-20.95 431.41-20.15 430.11-18L430.11-18 426.06-11.1Q425.51-10.05 425.36-8.8 425.21-7.55 425.21-4.3L425.21-4.3Q425.21-3 425.61-2.5 426.01-2 427.06-2L427.06-2Q427.71-2 428.28-2.05 428.86-2.1 429.06-2.1L429.06-2.1 429.16-1.95 428.76 0.15Q428.16 0.1 426.51 0.05 424.86 0 423.16 0L423.16 0Q421.86 0 420.21 0.18 418.56 0.35 418.06 0.45L418.06 0.45Z" opacity="1" transform="matrix(1,0,0,1,0,0)" fill="#e8ebf0" class="slogan-text-1" data-fill-palette-color="secondary" id="text-1"></path></svg></g></svg></g></svg></g></svg></g></svg></g></svg></g></svg></g><path d="M167.009 68.957L167.009 10.88 392.449 10.88 392.449 236.32 167.009 236.32 167.009 178.243 172.743 178.243 172.743 230.586 386.715 230.586 386.715 16.614 172.743 16.614 172.743 68.957Z" fill="#32456f" stroke="transparent" data-fill-palette-color="tertiary"></path></svg></g><defs></defs></svg><rect width="395.52" height="247.2" fill="none" stroke="none" visibility="hidden"></rect></g></svg></g></svg>